STARTFONT 2.1
COMMENT Copyright (C) 1990-1991 EWT Consulting
COMMENT Portions Copyright (C) 1994-1995 Cronyx Ltd.
COMMENT Changes Copyright (C) 1996 by Andrey A. Chernov, Moscow, Russia.
COMMENT Modified by Serge Vakulenko, <vak@cronyx.ru>
COMMENT This software may be used, modified, copied, distributed, and sold,
COMMENT in both source and binary form provided that the copyright
COMMENT and these terms are retained. Under no circumstances is the author
COMMENT responsible for the proper functioning of this software, nor does
COMMENT the author assume any responsibility for damages incurred with its use.
COMMENT $XFree86: xc/fonts/bdf/cyrillic/crox2hbo.bdf,v 3.2 1996/09/01 12:18:02 dawes Exp $
FONT -Cronyx-Helvetica-Bold-O-Normal--14-100-100-100-P-56-KOI8-R
SIZE 10 96 96
FONTBOUNDINGBOX 20 16 -1 -3
STARTPROPERTIES 19
DEFAULT_CHAR 32
FONT_ASCENT 13
FONT_DESCENT 3
SPACING "P"
FONTNAME_REGISTRY ""
FOUNDRY "Cronyx"
FAMILY_NAME "Helvetica"
WEIGHT_NAME "Bold"
SLANT "O"
SETWIDTH_NAME "Normal"
ADD_STYLE_NAME ""
AVERAGE_WIDTH 56
CHARSET_REGISTRY "KOI8"
CHARSET_ENCODING "R"
PIXEL_SIZE 14
POINT_SIZE 100
RESOLUTION_X 100
RESOLUTION_Y 100
COPYRIGHT "Copyright (C) 1990, 1991 EWT Consulting, Portions Copyright (C) 1994 Cronyx Ltd., Portions Copyright (C) 1996 by Andrey A. Chernov, Moscow, Russia."
ENDPROPERTIES
CHARS 224
STARTCHAR space
ENCODING 32
SWIDTH 250 0
DWIDTH 4 0
BBX 9 16 -1 -3
BITMAP
0000
0000
0000
0000
0000
0000
0000
0000
0000
0000
0000
0000
0000
0000
0000
0000
ENDCHAR
STARTCHAR exclam
ENCODING 33
SWIDTH 250 0
DWIDTH 4 0
BBX 9 16 -1 -3
BITMAP
0000
0000
0000
0300
0600
0600
0600
0C00
0C00
0C00
1800
0000
1800
0000
0000
0000
ENDCHAR
STARTCHAR quotedbl
ENCODING 34
SWIDTH 375 0
DWIDTH 6 0
BBX 11 16 -1 -3
BITMAP
0000
0000
0000
03C0
0780
0780
0780
0000
0000
0000
0000
0000
0000
0000
0000
0000
ENDCHAR
STARTCHAR numbersign
ENCODING 35
SWIDTH 500 0
DWIDTH 8 0
BBX 13 16 -1 -3
BITMAP
0000
0000
0000
00F0
01E0
01E0
07F0
0780
0780
1FC0
1E00
1E00
1E00
0000
0000
0000
ENDCHAR
STARTCHAR dollar
ENCODING 36
SWIDTH 500 0
DWIDTH 8 0
BBX 13 16 -1 -3
BITMAP
0000
0000
0000
00C0
03C0
07E0
07E0
0F00
0780
03C0
0780
1F80
0F00
0C00
0000
0000
ENDCHAR
STARTCHAR percent
ENCODING 37
SWIDTH 812 0
DWIDTH 13 0
BBX 18 16 -1 -3
BITMAP
000000
000000
000000
01C000
06C600
06CC00
039800
006000
00C000
019C00
066C00
0C6C00
003800
000000
000000
000000
ENDCHAR
STARTCHAR ampersand
ENCODING 38
SWIDTH 625 0
DWIDTH 10 0
BBX 15 16 -1 -3
BITMAP
0000
0000
0000
00E0
0360
0360
0360
0380
0780
0CC0
19E0
18C0
0FE0
0000
0000
0000
ENDCHAR
STARTCHAR quoteright
ENCODING 39
SWIDTH 250 0
DWIDTH 4 0
BBX 9 16 -1 -3
BITMAP
0000
0000
0000
0300
0600
0600
0600
0000
0000
0000
0000
0000
0000
0000
0000
0000
ENDCHAR
STARTCHAR parenleft
ENCODING 40
SWIDTH 312 0
DWIDTH 5 0
BBX 10 16 -1 -3
BITMAP
0000
0000
0000
00C0
0300
0300
0600
0C00
0C00
0C00
1800
1800
1800
1800
1800
0C00
ENDCHAR
STARTCHAR parenright
ENCODING 41
SWIDTH 312 0
DWIDTH 5 0
BBX 10 16 -1 -3
BITMAP
0000
0000
0000
0400
0600
0600
0300
0600
0600
0600
0C00
0C00
0C00
3000
3000
4000
ENDCHAR
STARTCHAR asterisk
ENCODING 42
SWIDTH 375 0
DWIDTH 6 0
BBX 11 16 -1 -3
BITMAP
0000
0000
0000
0180
0BC0
0780
0FC0
0000
0000
0000
0000
0000
0000
0000
0000
0000
ENDCHAR
STARTCHAR plus
ENCODING 43
SWIDTH 500 0
DWIDTH 8 0
BBX 13 16 -1 -3
BITMAP
0000
0000
0000
0000
0000
0000
0180
0300
0FC0
0300
0600
0000
0000
0000
0000
0000
ENDCHAR
STARTCHAR comma
ENCODING 44
SWIDTH 250 0
DWIDTH 4 0
BBX 9 16 -1 -3
BITMAP
0000
0000
0000
0000
0000
0000
0000
0000
0000
0000
0000
0000
1800
4000
0000
0000
ENDCHAR
STARTCHAR minus
ENCODING 45
SWIDTH 312 0
DWIDTH 5 0
BBX 10 16 -1 -3
BITMAP
0000
0000
0000
0000
0000
0000
0000
0000
1F00
0000
0000
0000
0000
0000
0000
0000
ENDCHAR
STARTCHAR period
ENCODING 46
SWIDTH 250 0
DWIDTH 4 0
BBX 9 16 -1 -3
BITMAP
0000
0000
0000
0000
0000
0000
0000
0000
0000
0000
0000
0000
1800
0000
0000
0000
ENDCHAR
STARTCHAR slash
ENCODING 47
SWIDTH 312 0
DWIDTH 5 0
BBX 10 16 -1 -3
BITMAP
0000
0000
0000
00C0
0180
0180
0300
0600
0600
0C00
1800
1800
2000
4000
4000
0000
ENDCHAR
STARTCHAR zero
ENCODING 48
SWIDTH 500 0
DWIDTH 8 0
BBX 13 16 -1 -3
BITMAP
0000
0000
0000
01E0
0660
0660
0660
0CC0
0CC0
0CC0
1980
1980
0F00
0000
0000
0000
ENDCHAR
STARTCHAR one
ENCODING 49
SWIDTH 500 0
DWIDTH 8 0
BBX 13 16 -1 -3
BITMAP
0000
0000
0000
00C0
0780
0180
0180
0300
0300
0300
0600
0600
0600
0000
0000
0000
ENDCHAR
STARTCHAR two
ENCODING 50
SWIDTH 500 0
DWIDTH 8 0
BBX 13 16 -1 -3
BITMAP
0000
0000
0000
01E0
0660
0660
0060
0180
0300
0600
1800
1800
1F80
0000
0000
0000
ENDCHAR
STARTCHAR three
ENCODING 51
SWIDTH 500 0
DWIDTH 8 0
BBX 13 16 -1 -3
BITMAP
0000
0000
0000
01E0
0660
0060
0060
0380
00C0
00C0
0180
1980
0F00
0000
0000
0000
ENDCHAR
STARTCHAR four
ENCODING 52
SWIDTH 500 0
DWIDTH 8 0
BBX 13 16 -1 -3
BITMAP
0000
0000
0000
0030
00E0
01E0
01E0
06C0
0CC0
0FC0
0180
0180
0180
0000
0000
0000
ENDCHAR
STARTCHAR five
ENCODING 53
SWIDTH 500 0
DWIDTH 8 0
BBX 13 16 -1 -3
BITMAP
0000
0000
0000
03F0
0600
0600
0600
0F80
0CC0
00C0
0180
1980
0F00
0000
0000
0000
ENDCHAR
STARTCHAR six
ENCODING 54
SWIDTH 500 0
DWIDTH 8 0
BBX 13 16 -1 -3
BITMAP
0000
0000
0000
01E0
0660
0600
0600
0F80
0EC0
0CC0
1980
1980
0F00
0000
0000
0000
ENDCHAR
STARTCHAR seven
ENCODING 55
SWIDTH 500 0
DWIDTH 8 0
BBX 13 16 -1 -3
BITMAP
0000
0000
0000
03F0
0060
0060
00C0
0180
0300
0300
0C00
0C00
0C00
0000
0000
0000
ENDCHAR
STARTCHAR eight
ENCODING 56
SWIDTH 500 0
DWIDTH 8 0
BBX 13 16 -1 -3
BITMAP
0000
0000
0000
01E0
0660
0660
0660
0780
0CC0
0CC0
1980
1980
0F00
0000
0000
0000
ENDCHAR
STARTCHAR nine
ENCODING 57
SWIDTH 500 0
DWIDTH 8 0
BBX 13 16 -1 -3
BITMAP
0000
0000
0000
01E0
0660
0660
0660
0DC0
07C0
00C0
0180
1980
0F00
0000
0000
0000
ENDCHAR
STARTCHAR colon
ENCODING 58
SWIDTH 250 0
DWIDTH 4 0
BBX 9 16 -1 -3
BITMAP
0000
0000
0000
0000
0000
0000
0600
0000
0000
0000
0000
0000
1800
0000
0000
0000
ENDCHAR
STARTCHAR semicolon
ENCODING 59
SWIDTH 250 0
DWIDTH 4 0
BBX 9 16 -1 -3
BITMAP
0000
0000
0000
0000
0000
0000
0600
0000
0000
0000
0000
0000
1800
4000
0000
0000
ENDCHAR
STARTCHAR less
ENCODING 60
SWIDTH 500 0
DWIDTH 8 0
BBX 13 16 -1 -3
BITMAP
0000
0000
0000
0000
0000
00E0
01C0
0700
0E00
0700
0700
0380
0000
0000
0000
0000
ENDCHAR
STARTCHAR equal
ENCODING 61
SWIDTH 500 0
DWIDTH 8 0
BBX 13 16 -1 -3
BITMAP
0000
0000
0000
0000
0000
0000
0000
0FC0
0000
0FC0
0000
0000
0000
0000
0000
0000
ENDCHAR
STARTCHAR greater
ENCODING 62
SWIDTH 500 0
DWIDTH 8 0
BBX 13 16 -1 -3
BITMAP
0000
0000
0000
0000
0000
0700
0380
0380
01C0
0380
0E00
1C00
0000
0000
0000
0000
ENDCHAR
STARTCHAR question
ENCODING 63
SWIDTH 500 0
DWIDTH 8 0
BBX 13 16 -1 -3
BITMAP
0000
0000
0000
01E0
0660
0660
0060
0180
0300
0300
0600
0000
0600
0000
0000
0000
ENDCHAR
STARTCHAR at
ENCODING 64
SWIDTH 937 0
DWIDTH 15 0
BBX 20 16 -1 -3
BITMAP
000000
000000
003E00
00E380
030180
030180
063EC0
0CCD80
0CCD80
0CD980
0CFE00
0C0000
070E00
03F000
000000
000000
ENDCHAR
STARTCHAR A
ENCODING 65
SWIDTH 625 0
DWIDTH 10 0
BBX 15 16 -1 -3
BITMAP
0000
0000
0000
0060
00C0
01E0
01E0
0660
0660
0FF0
1860
2030
2030
0000
0000
0000
ENDCHAR
STARTCHAR B
ENCODING 66
SWIDTH 625 0
DWIDTH 10 0
BBX 15 16 -1 -3
BITMAP
0000
0000
0000
03F8
0618
0618
0618
0FE0
0C30
0C30
1860
1860
1FC0
0000
0000
0000
ENDCHAR
STARTCHAR C
ENCODING 67
SWIDTH 625 0
DWIDTH 10 0
BBX 15 16 -1 -3
BITMAP
0000
0000
0000
00F8
0318
060C
0600
0C00
0C00
0C00
1830
0C60
07C0
0000
0000
0000
ENDCHAR
STARTCHAR D
ENCODING 68
SWIDTH 687 0
DWIDTH 11 0
BBX 16 16 -1 -3
BITMAP
0000
0000
0000
03F8
0618
060C
060C
0C18
0C18
0C18
1830
1860
1FC0
0000
0000
0000
ENDCHAR
STARTCHAR E
ENCODING 69
SWIDTH 625 0
DWIDTH 10 0
BBX 15 16 -1 -3
BITMAP
0000
0000
0000
03FC
0600
0600
0600
0FE0
0C00
0C00
1800
1800
1FE0
0000
0000
0000
ENDCHAR
STARTCHAR F
ENCODING 70
SWIDTH 562 0
DWIDTH 9 0
BBX 14 16 -1 -3
BITMAP
0000
0000
0000
03FC
0600
0600
0600
0FE0
0C00
0C00
1800
1800
1800
0000
0000
0000
ENDCHAR
STARTCHAR G
ENCODING 71
SWIDTH 687 0
DWIDTH 11 0
BBX 16 16 -1 -3
BITMAP
0000
0000
0000
00F8
0318
060C
0600
0C00
0C78
0C18
1830
0C70
07F0
0000
0000
0000
ENDCHAR
STARTCHAR H
ENCODING 72
SWIDTH 687 0
DWIDTH 11 0
BBX 16 16 -1 -3
BITMAP
0000
0000
0000
0306
060C
060C
060C
0FF8
0C18
0C18
1830
1830
1830
0000
0000
0000
ENDCHAR
STARTCHAR I
ENCODING 73
SWIDTH 250 0
DWIDTH 4 0
BBX 9 16 -1 -3
BITMAP
0000
0000
0000
0300
0600
0600
0600
0C00
0C00
0C00
1800
1800
1800
0000
0000
0000
ENDCHAR
STARTCHAR J
ENCODING 74
SWIDTH 500 0
DWIDTH 8 0
BBX 13 16 -1 -3
BITMAP
0000
0000
0000
0030
0060
0060
0060
00C0
00C0
00C0
1980
1980
0F00
0000
0000
0000
ENDCHAR
STARTCHAR K
ENCODING 75
SWIDTH 562 0
DWIDTH 9 0
BBX 14 16 -1 -3
BITMAP
0000
0000
0000
0318
0660
06C0
0780
0E00
0F00
0D80
1980
18C0
1860
0000
0000
0000
ENDCHAR
STARTCHAR L
ENCODING 76
SWIDTH 500 0
DWIDTH 8 0
BBX 13 16 -1 -3
BITMAP
0000
0000
0000
0300
0600
0600
0600
0C00
0C00
0C00
1800
1800
1FC0
0000
0000
0000
ENDCHAR
STARTCHAR M
ENCODING 77
SWIDTH 750 0
DWIDTH 12 0
BBX 17 16 -1 -3
BITMAP
000000
000000
000000
030300
060600
070E00
070E00
0F3C00
0F3C00
0DEC00
1BD800
199800
199800
000000
000000
000000
ENDCHAR
STARTCHAR N
ENCODING 78
SWIDTH 687 0
DWIDTH 11 0
BBX 16 16 -1 -3
BITMAP
0000
0000
0000
0306
070C
078C
078C
0D98
0CD8
0C78
18F0
1870
1830
0000
0000
0000
ENDCHAR
STARTCHAR O
ENCODING 79
SWIDTH 687 0
DWIDTH 11 0
BBX 16 16 -1 -3
BITMAP
0000
0000
0000
00F8
0318
060C
060C
0C18
0C18
0C18
1830
0C60
07C0
0000
0000
0000
ENDCHAR
STARTCHAR P
ENCODING 80
SWIDTH 625 0
DWIDTH 10 0
BBX 15 16 -1 -3
BITMAP
0000
0000
0000
03F8
0618
060C
060C
0C30
0FE0
0C00
1800
1800
1800
0000
0000
0000
ENDCHAR
STARTCHAR Q
ENCODING 81
SWIDTH 687 0
DWIDTH 11 0
BBX 16 16 -1 -3
BITMAP
0000
0000
0000
00F8
0318
060C
060C
0C18
0C18
0C18
18F0
0C60
07F0
0000
0000
0000
ENDCHAR
STARTCHAR R
ENCODING 82
SWIDTH 687 0
DWIDTH 11 0
BBX 16 16 -1 -3
BITMAP
0000
0000
0000
03F8
0618
060C
060C
0C30
0FF0
0C18
1830
1830
1818
0000
0000
0000
ENDCHAR
STARTCHAR S
ENCODING 83
SWIDTH 625 0
DWIDTH 10 0
BBX 15 16 -1 -3
BITMAP
0000
0000
0000
01F8
0618
0618
0600
0780
00E0
0030
1860
1860
0FC0
0000
0000
0000
ENDCHAR
STARTCHAR T
ENCODING 84
SWIDTH 625 0
DWIDTH 10 0
BBX 15 16 -1 -3
BITMAP
0000
0000
0000
07FE
00C0
00C0
00C0
0180
0180
0180
0300
0300
0300
0000
0000
0000
ENDCHAR
STARTCHAR U
ENCODING 85
SWIDTH 687 0
DWIDTH 11 0
BBX 16 16 -1 -3
BITMAP
0000
0000
0000
0306
060C
060C
060C
0C18
0C18
0C18
1830
0C60
07C0
0000
0000
0000
ENDCHAR
STARTCHAR V
ENCODING 86
SWIDTH 625 0
DWIDTH 10 0
BBX 15 16 -1 -3
BITMAP
0000
0000
0000
0406
080C
0618
0618
0660
0660
03C0
0780
0300
0300
0000
0000
0000
ENDCHAR
STARTCHAR W
ENCODING 87
SWIDTH 875 0
DWIDTH 14 0
BBX 19 16 -1 -3
BITMAP
000000
000000
000000
041860
0830C0
0830C0
067980
0CF300
079E00
079E00
0F3C00
061800
061800
000000
000000
000000
ENDCHAR
STARTCHAR X
ENCODING 88
SWIDTH 562 0
DWIDTH 9 0
BBX 14 16 -1 -3
BITMAP
0000
0000
0000
040C
0818
0630
0360
0380
0380
06C0
18C0
2060
2060
0000
0000
0000
ENDCHAR
STARTCHAR Y
ENCODING 89
SWIDTH 625 0
DWIDTH 10 0
BBX 15 16 -1 -3
BITMAP
0000
0000
0000
0406
080C
0618
0330
03C0
0180
0180
0300
0300
0300
0000
0000
0000
ENDCHAR
STARTCHAR Z
ENCODING 90
SWIDTH 562 0
DWIDTH 9 0
BBX 14 16 -1 -3
BITMAP
0000
0000
0000
03F8
0030
0060
0060
0180
0300
0600
0C00
1800
1FC0
0000
0000
0000
ENDCHAR
STARTCHAR bracketleft
ENCODING 91
SWIDTH 312 0
DWIDTH 5 0
BBX 10 16 -1 -3
BITMAP
0000
0000
0000
03C0
0600
0600
0600
0C00
0C00
0C00
1800
1800
1800
3000
3000
3C00
ENDCHAR
STARTCHAR backslash
ENCODING 92
SWIDTH 312 0
DWIDTH 5 0
BBX 10 16 -1 -3
BITMAP
0000
0000
0000
0400
0800
0800
0600
0C00
0C00
0600
0C00
0C00
0600
0C00
0C00
0000
ENDCHAR
STARTCHAR bracketright
ENCODING 93
SWIDTH 312 0
DWIDTH 5 0
BBX 10 16 -1 -3
BITMAP
0000
0000
0000
0780
0300
0300
0300
0600
0600
0600
0C00
0C00
0C00
1800
1800
7800
ENDCHAR
STARTCHAR asciicircum
ENCODING 94
SWIDTH 500 0
DWIDTH 8 0
BBX 13 16 -1 -3
BITMAP
0000
0000
00C0
01E0
0660
0000
0000
0000
0000
0000
0000
0000
0000
0000
0000
0000
ENDCHAR
STARTCHAR underscore
ENCODING 95
SWIDTH 500 0
DWIDTH 8 0
BBX 13 16 -1 -3
BITMAP
0000
0000
0000
0000
0000
0000
0000
0000
0000
0000
0000
0000
0000
0000
7F80
0000
ENDCHAR
STARTCHAR quoteleft
ENCODING 96
SWIDTH 312 0
DWIDTH 5 0
BBX 10 16 -1 -3
BITMAP
0000
0000
0000
0300
0300
0000
0000
0000
0000
0000
0000
0000
0000
0000
0000
0000
ENDCHAR
STARTCHAR a
ENCODING 97
SWIDTH 562 0
DWIDTH 9 0
BBX 14 16 -1 -3
BITMAP
0000
0000
0000
0000
0000
0000
03E0
0C60
07E0
0C60
18C0
18C0
0FE0
0000
0000
0000
ENDCHAR
STARTCHAR b
ENCODING 98
SWIDTH 562 0
DWIDTH 9 0
BBX 14 16 -1 -3
BITMAP
0000
0000
0000
0300
0600
0600
07E0
0E60
0C60
0C60
18C0
1CC0
1F80
0000
0000
0000
ENDCHAR
STARTCHAR c
ENCODING 99
SWIDTH 500 0
DWIDTH 8 0
BBX 13 16 -1 -3
BITMAP
0000
0000
0000
0000
0000
0000
03E0
0C60
0C00
0C00
1800
18C0
0F80
0000
0000
0000
ENDCHAR
STARTCHAR d
ENCODING 100
SWIDTH 562 0
DWIDTH 9 0
BBX 14 16 -1 -3
BITMAP
0000
0000
0000
0018
0030
0030
03F0
0CE0
0C60
0C60
18C0
19C0
0FC0
0000
0000
0000
ENDCHAR
STARTCHAR e
ENCODING 101
SWIDTH 562 0
DWIDTH 9 0
BBX 14 16 -1 -3
BITMAP
0000
0000
0000
0000
0000
0000
03E0
0C60
0C60
0FE0
1800
18C0
0F80
0000
0000
0000
ENDCHAR
STARTCHAR f
ENCODING 102
SWIDTH 250 0
DWIDTH 4 0
BBX 9 16 -1 -3
BITMAP
0000
0000
0000
0180
0600
0600
0F00
0C00
0C00
0C00
1800
1800
1800
0000
0000
0000
ENDCHAR
STARTCHAR g
ENCODING 103
SWIDTH 562 0
DWIDTH 9 0
BBX 14 16 -1 -3
BITMAP
0000
0000
0000
0000
0000
0000
03F0
0CE0
0C60
0C60
18C0
19C0
0FC0
0180
0180
1F00
ENDCHAR
STARTCHAR h
ENCODING 104
SWIDTH 500 0
DWIDTH 8 0
BBX 13 16 -1 -3
BITMAP
0000
0000
0000
0300
0600
0600
07C0
0EC0
0CC0
0CC0
1980
1980
1980
0000
0000
0000
ENDCHAR
STARTCHAR i
ENCODING 105
SWIDTH 250 0
DWIDTH 4 0
BBX 9 16 -1 -3
BITMAP
0000
0000
0000
0300
0000
0000
0600
0C00
0C00
0C00
1800
1800
1800
0000
0000
0000
ENDCHAR
STARTCHAR j
ENCODING 106
SWIDTH 250 0
DWIDTH 4 0
BBX 9 16 -1 -3
BITMAP
0000
0000
0000
0300
0000
0000
0600
0C00
0C00
0C00
1800
1800
1800
3000
3000
4000
ENDCHAR
STARTCHAR k
ENCODING 107
SWIDTH 500 0
DWIDTH 8 0
BBX 13 16 -1 -3
BITMAP
0000
0000
0000
0300
0600
0600
0660
0D80
0F00
0F00
1B00
1980
18C0
0000
0000
0000
ENDCHAR
STARTCHAR l
ENCODING 108
SWIDTH 250 0
DWIDTH 4 0
BBX 9 16 -1 -3
BITMAP
0000
0000
0000
0300
0600
0600
0600
0C00
0C00
0C00
1800
1800
1800
0000
0000
0000
ENDCHAR
STARTCHAR m
ENCODING 109
SWIDTH 750 0
DWIDTH 12 0
BBX 17 16 -1 -3
BITMAP
000000
000000
000000
000000
000000
000000
07DC00
0EEC00
0CCC00
0CCC00
199800
199800
199800
000000
000000
000000
ENDCHAR
STARTCHAR n
ENCODING 110
SWIDTH 500 0
DWIDTH 8 0
BBX 13 16 -1 -3
BITMAP
0000
0000
0000
0000
0000
0000
07C0
0EC0
0CC0
0CC0
1980
1980
1980
0000
0000
0000
ENDCHAR
STARTCHAR o
ENCODING 111
SWIDTH 562 0
DWIDTH 9 0
BBX 14 16 -1 -3
BITMAP
0000
0000
0000
0000
0000
0000
03E0
0C60
0C60
0C60
18C0
18C0
0F80
0000
0000
0000
ENDCHAR
STARTCHAR p
ENCODING 112
SWIDTH 562 0
DWIDTH 9 0
BBX 14 16 -1 -3
BITMAP
0000
0000
0000
0000
0000
0000
07E0
0E60
0C60
0C60
18C0
1CC0
1F80
3000
3000
3000
ENDCHAR
STARTCHAR q
ENCODING 113
SWIDTH 562 0
DWIDTH 9 0
BBX 14 16 -1 -3
BITMAP
0000
0000
0000
0000
0000
0000
03F0
0CE0
0C60
0C60
18C0
19C0
0FC0
0180
0180
0180
ENDCHAR
STARTCHAR r
ENCODING 114
SWIDTH 312 0
DWIDTH 5 0
BBX 10 16 -1 -3
BITMAP
0000
0000
0000
0000
0000
0000
0780
0E00
0C00
0C00
1800
1800
1800
0000
0000
0000
ENDCHAR
STARTCHAR s
ENCODING 115
SWIDTH 500 0
DWIDTH 8 0
BBX 13 16 -1 -3
BITMAP
0000
0000
0000
0000
0000
0000
03C0
0CC0
0C00
0780
0180
1980
0F00
0000
0000
0000
ENDCHAR
STARTCHAR t
ENCODING 116
SWIDTH 250 0
DWIDTH 4 0
BBX 9 16 -1 -3
BITMAP
0000
0000
0000
0000
0600
0600
0F00
0C00
0C00
0C00
1800
1800
0C00
0000
0000
0000
ENDCHAR
STARTCHAR u
ENCODING 117
SWIDTH 500 0
DWIDTH 8 0
BBX 13 16 -1 -3
BITMAP
0000
0000
0000
0000
0000
0000
0660
0CC0
0CC0
0CC0
1980
1B80
0F80
0000
0000
0000
ENDCHAR
STARTCHAR v
ENCODING 118
SWIDTH 500 0
DWIDTH 8 0
BBX 13 16 -1 -3
BITMAP
0000
0000
0000
0000
0000
0000
0830
1060
0CC0
0CC0
0F00
0F00
0600
0000
0000
0000
ENDCHAR
STARTCHAR w
ENCODING 119
SWIDTH 625 0
DWIDTH 10 0
BBX 15 16 -1 -3
BITMAP
0000
0000
0000
0000
0000
0000
08CC
1198
0FF0
0FF0
1FE0
0CC0
0CC0
0000
0000
0000
ENDCHAR
STARTCHAR x
ENCODING 120
SWIDTH 437 0
DWIDTH 7 0
BBX 12 16 -1 -3
BITMAP
0000
0000
0000
0000
0000
0000
0860
0D80
0700
0700
0E00
1B00
2180
0000
0000
0000
ENDCHAR
STARTCHAR y
ENCODING 121
SWIDTH 500 0
DWIDTH 8 0
BBX 13 16 -1 -3
BITMAP
0000
0000
0000
0000
0000
0000
0830
1060
0CC0
0CC0
0F00
0F00
0600
0C00
1800
7000
ENDCHAR
STARTCHAR z
ENCODING 122
SWIDTH 437 0
DWIDTH 7 0
BBX 12 16 -1 -3
BITMAP
0000
0000
0000
0000
0000
0000
07C0
0180
0300
0600
0C00
1800
1F00
0000
0000
0000
ENDCHAR
STARTCHAR braceleft
ENCODING 123
SWIDTH 375 0
DWIDTH 6 0
BBX 11 16 -1 -3
BITMAP
0000
0000
0000
00E0
0300
0300
0300
0600
0600
1C00
0C00
0C00
0C00
1800
1800
0E00
ENDCHAR
STARTCHAR bar
ENCODING 124
SWIDTH 250 0
DWIDTH 4 0
BBX 9 16 -1 -3
BITMAP
0000
0000
0000
0300
0600
0600
0600
0C00
0C00
0C00
1800
1800
1800
3000
3000
3000
ENDCHAR
STARTCHAR braceright
ENCODING 125
SWIDTH 375 0
DWIDTH 6 0
BBX 11 16 -1 -3
BITMAP
0000
0000
0000
0700
0300
0300
0300
0600
0600
0380
0C00
0C00
0C00
1800
1800
7000
ENDCHAR
STARTCHAR asciitilde
ENCODING 126
SWIDTH 625 0
DWIDTH 10 0
BBX 15 16 -1 -3
BITMAP
0000
0000
0000
01CC
06D8
0670
0000
0000
0000
0000
0000
0000
0000
0000
0000
0000
ENDCHAR
STARTCHAR C177
ENCODING -1
SWIDTH 312 0
DWIDTH 5 0
BBX 10 16 -1 -3
BITMAP
0000
0000
0000
0380
0700
0700
0700
0E00
0E00
0E00
1C00
1C00
1C00
0000
0000
0000
ENDCHAR
STARTCHAR C200
ENCODING -1
SWIDTH 312 0
DWIDTH 5 0
BBX 10 16 -1 -3
BITMAP
0000
0000
0000
0380
0700
0700
0700
0E00
0E00
0E00
1C00
1C00
1C00
0000
0000
0000
ENDCHAR
STARTCHAR C201
ENCODING -1
SWIDTH 312 0
DWIDTH 5 0
BBX 10 16 -1 -3
BITMAP
0000
0000
0000
0380
0700
0700
0700
0E00
0E00
0E00
1C00
1C00
1C00
0000
0000
0000
ENDCHAR
STARTCHAR C202
ENCODING -1
SWIDTH 312 0
DWIDTH 5 0
BBX 10 16 -1 -3
BITMAP
0000
0000
0000
0380
0700
0700
0700
0E00
0E00
0E00
1C00
1C00
1C00
0000
0000
0000
ENDCHAR
STARTCHAR C203
ENCODING -1
SWIDTH 312 0
DWIDTH 5 0
BBX 10 16 -1 -3
BITMAP
0000
0000
0000
0380
0700
0700
0700
0E00
0E00
0E00
1C00
1C00
1C00
0000
0000
0000
ENDCHAR
STARTCHAR C204
ENCODING -1
SWIDTH 312 0
DWIDTH 5 0
BBX 10 16 -1 -3
BITMAP
0000
0000
0000
0380
0700
0700
0700
0E00
0E00
0E00
1C00
1C00
1C00
0000
0000
0000
ENDCHAR
STARTCHAR C205
ENCODING -1
SWIDTH 312 0
DWIDTH 5 0
BBX 10 16 -1 -3
BITMAP
0000
0000
0000
0380
0700
0700
0700
0E00
0E00
0E00
1C00
1C00
1C00
0000
0000
0000
ENDCHAR
STARTCHAR C206
ENCODING -1
SWIDTH 312 0
DWIDTH 5 0
BBX 10 16 -1 -3
BITMAP
0000
0000
0000
0380
0700
0700
0700
0E00
0E00
0E00
1C00
1C00
1C00
0000
0000
0000
ENDCHAR
STARTCHAR C207
ENCODING -1
SWIDTH 312 0
DWIDTH 5 0
BBX 10 16 -1 -3
BITMAP
0000
0000
0000
0380
0700
0700
0700
0E00
0E00
0E00
1C00
1C00
1C00
0000
0000
0000
ENDCHAR
STARTCHAR C210
ENCODING -1
SWIDTH 312 0
DWIDTH 5 0
BBX 10 16 -1 -3
BITMAP
0000
0000
0000
0380
0700
0700
0700
0E00
0E00
0E00
1C00
1C00
1C00
0000
0000
0000
ENDCHAR
STARTCHAR C211
ENCODING -1
SWIDTH 312 0
DWIDTH 5 0
BBX 10 16 -1 -3
BITMAP
0000
0000
0000
0380
0700
0700
0700
0E00
0E00
0E00
1C00
1C00
1C00
0000
0000
0000
ENDCHAR
STARTCHAR C212
ENCODING -1
SWIDTH 312 0
DWIDTH 5 0
BBX 10 16 -1 -3
BITMAP
0000
0000
0000
0380
0700
0700
0700
0E00
0E00
0E00
1C00
1C00
1C00
0000
0000
0000
ENDCHAR
STARTCHAR C213
ENCODING -1
SWIDTH 312 0
DWIDTH 5 0
BBX 10 16 -1 -3
BITMAP
0000
0000
0000
0380
0700
0700
0700
0E00
0E00
0E00
1C00
1C00
1C00
0000
0000
0000
ENDCHAR
STARTCHAR C214
ENCODING -1
SWIDTH 312 0
DWIDTH 5 0
BBX 10 16 -1 -3
BITMAP
0000
0000
0000
0380
0700
0700
0700
0E00
0E00
0E00
1C00
1C00
1C00
0000
0000
0000
ENDCHAR
STARTCHAR C215
ENCODING -1
SWIDTH 312 0
DWIDTH 5 0
BBX 10 16 -1 -3
BITMAP
0000
0000
0000
0380
0700
0700
0700
0E00
0E00
0E00
1C00
1C00
1C00
0000
0000
0000
ENDCHAR
STARTCHAR C216
ENCODING -1
SWIDTH 312 0
DWIDTH 5 0
BBX 10 16 -1 -3
BITMAP
0000
0000
0000
0380
0700
0700
0700
0E00
0E00
0E00
1C00
1C00
1C00
0000
0000
0000
ENDCHAR
STARTCHAR C217
ENCODING -1
SWIDTH 312 0
DWIDTH 5 0
BBX 10 16 -1 -3
BITMAP
0000
0000
0000
0380
0700
0700
0700
0E00
0E00
0E00
1C00
1C00
1C00
0000
0000
0000
ENDCHAR
STARTCHAR C220
ENCODING -1
SWIDTH 312 0
DWIDTH 5 0
BBX 10 16 -1 -3
BITMAP
0000
0000
0000
0380
0700
0700
0700
0E00
0E00
0E00
1C00
1C00
1C00
0000
0000
0000
ENDCHAR
STARTCHAR C221
ENCODING -1
SWIDTH 250 0
DWIDTH 4 0
BBX 9 16 -1 -3
BITMAP
0000
0000
0000
0180
0600
0000
0000
0000
0000
0000
0000
0000
0000
0000
0000
0000
ENDCHAR
STARTCHAR C222
ENCODING -1
SWIDTH 250 0
DWIDTH 4 0
BBX 9 16 -1 -3
BITMAP
0000
0000
0000
0300
0800
0000
0000
0000
0000
0000
0000
0000
0000
0000
0000
0000
ENDCHAR
STARTCHAR C223
ENCODING -1
SWIDTH 312 0
DWIDTH 5 0
BBX 10 16 -1 -3
BITMAP
0000
0000
0000
0380
0700
0700
0700
0E00
0E00
0E00
1C00
1C00
1C00
0000
0000
0000
ENDCHAR
STARTCHAR C224
ENCODING -1
SWIDTH 312 0
DWIDTH 5 0
BBX 10 16 -1 -3
BITMAP
0000
0000
0000
0380
0700
0700
0700
0E00
0E00
0E00
1C00
1C00
1C00
0000
0000
0000
ENDCHAR
STARTCHAR C225
ENCODING -1
SWIDTH 312 0
DWIDTH 5 0
BBX 10 16 -1 -3
BITMAP
0000
0000
0000
0380
0700
0700
0700
0E00
0E00
0E00
1C00
1C00
1C00
0000
0000
0000
ENDCHAR
STARTCHAR C226
ENCODING -1
SWIDTH 312 0
DWIDTH 5 0
BBX 10 16 -1 -3
BITMAP
0000
0000
0000
0380
0700
0700
0700
0E00
0E00
0E00
1C00
1C00
1C00
0000
0000
0000
ENDCHAR
STARTCHAR C227
ENCODING -1
SWIDTH 312 0
DWIDTH 5 0
BBX 10 16 -1 -3
BITMAP
0000
0000
0000
0380
0700
0700
0700
0E00
0E00
0E00
1C00
1C00
1C00
0000
0000
0000
ENDCHAR
STARTCHAR C230
ENCODING -1
SWIDTH 312 0
DWIDTH 5 0
BBX 10 16 -1 -3
BITMAP
0000
0000
0000
0380
0700
0700
0700
0E00
0E00
0E00
1C00
1C00
1C00
0000
0000
0000
ENDCHAR
STARTCHAR C231
ENCODING -1
SWIDTH 312 0
DWIDTH 5 0
BBX 10 16 -1 -3
BITMAP
0000
0000
0000
0380
0700
0700
0700
0E00
0E00
0E00
1C00
1C00
1C00
0000
0000
0000
ENDCHAR
STARTCHAR C232
ENCODING -1
SWIDTH 312 0
DWIDTH 5 0
BBX 10 16 -1 -3
BITMAP
0000
0000
0000
0380
0700
0700
0700
0E00
0E00
0E00
1C00
1C00
1C00
0000
0000
0000
ENDCHAR
STARTCHAR C233
ENCODING -1
SWIDTH 312 0
DWIDTH 5 0
BBX 10 16 -1 -3
BITMAP
0000
0000
0000
0380
0700
0700
0700
0E00
0E00
0E00
1C00
1C00
1C00
0000
0000
0000
ENDCHAR
STARTCHAR C234
ENCODING 176
SWIDTH 312 0
DWIDTH 5 0
BBX 10 16 -1 -3
BITMAP
0000
0000
0000
0380
0700
0700
0700
0E00
0E00
0E00
1C00
1C00
1C00
0000
0000
0000
ENDCHAR
STARTCHAR C235
ENCODING 178
SWIDTH 312 0
DWIDTH 5 0
BBX 10 16 -1 -3
BITMAP
0000
0000
0000
0380
0700
0700
0700
0E00
0E00
0E00
1C00
1C00
1C00
0000
0000
0000
ENDCHAR
STARTCHAR C236
ENCODING -1
SWIDTH 312 0
DWIDTH 5 0
BBX 10 16 -1 -3
BITMAP
0000
0000
0000
0380
0700
0700
0700
0E00
0E00
0E00
1C00
1C00
1C00
0000
0000
0000
ENDCHAR
STARTCHAR C237
ENCODING -1
SWIDTH 312 0
DWIDTH 5 0
BBX 10 16 -1 -3
BITMAP
0000
0000
0000
0380
0700
0700
0700
0E00
0E00
0E00
1C00
1C00
1C00
0000
0000
0000
ENDCHAR
STARTCHAR C240
ENCODING 160
SWIDTH 250 0
DWIDTH 4 0
BBX 9 16 -1 -3
BITMAP
0000
0000
0000
0000
0000
0000
0000
0000
0000
0000
0000
0000
0000
0000
0000
0000
ENDCHAR
STARTCHAR exclamdown
ENCODING 161
SWIDTH 250 0
DWIDTH 4 0
BBX 9 16 -1 -3
BITMAP
0000
0000
0000
0000
0000
0000
0600
0000
0C00
0C00
1800
1800
1800
3000
3000
3000
ENDCHAR
STARTCHAR cent
ENCODING 162
SWIDTH 500 0
DWIDTH 8 0
BBX 13 16 -1 -3
BITMAP
0000
0000
0000
0000
0000
0060
03C0
0DC0
0D80
0F00
1E00
1D80
0F00
3000
0000
0000
ENDCHAR
STARTCHAR sterling
ENCODING 163
SWIDTH 500 0
DWIDTH 8 0
BBX 13 16 -1 -3
BITMAP
0000
0000
0000
01C0
06C0
0600
0600
0600
0F80
0600
0C00
1800
1F80
0000
0000
0000
ENDCHAR
STARTCHAR currency
ENCODING 164
SWIDTH 500 0
DWIDTH 8 0
BBX 13 16 -1 -3
BITMAP
0000
0000
0000
0330
03C0
03C0
03C0
0CC0
0000
0000
0000
0000
0000
0000
0000
0000
ENDCHAR
STARTCHAR yen
ENCODING 165
SWIDTH 500 0
DWIDTH 8 0
BBX 13 16 -1 -3
BITMAP
0000
0000
0000
0418
0830
0660
03C0
1FE0
0300
1FE0
0600
0600
0600
0000
0000
0000
ENDCHAR
STARTCHAR brokenbar
ENCODING 166
SWIDTH 250 0
DWIDTH 4 0
BBX 9 16 -1 -3
BITMAP
0000
0000
0000
0300
0600
0600
0600
0C00
0C00
0000
1800
1800
1800
3000
3000
3000
ENDCHAR
STARTCHAR section
ENCODING 167
SWIDTH 500 0
DWIDTH 8 0
BBX 13 16 -1 -3
BITMAP
0000
0000
0000
01E0
0660
0300
0380
0D80
06C0
0380
0300
1980
0F00
0000
0000
0000
ENDCHAR
STARTCHAR dieresis
ENCODING 168
SWIDTH 312 0
DWIDTH 5 0
BBX 10 16 -1 -3
BITMAP
0000
0000
0000
04C0
0000
0000
0000
0000
0000
0000
0000
0000
0000
0000
0000
0000
ENDCHAR
STARTCHAR copyright
ENCODING 191
SWIDTH 562 0
DWIDTH 9 0
BBX 14 16 -1 -3
BITMAP
0000
0000
0000
01F0
0630
09F8
0B18
1630
13F0
0C60
0F80
0000
0000
0000
0000
0000
ENDCHAR
STARTCHAR ordfeminine
ENCODING 170
SWIDTH 375 0
DWIDTH 6 0
BBX 11 16 -1 -3
BITMAP
0000
0000
0000
0180
0180
0380
0780
0700
0000
0F00
0000
0000
0000
0000
0000
0000
ENDCHAR
STARTCHAR guillemotleft
ENCODING 171
SWIDTH 500 0
DWIDTH 8 0
BBX 13 16 -1 -3
BITMAP
0000
0000
0000
0000
0000
0000
0000
03C0
0780
0F00
0F00
0780
0000
0000
0000
0000
ENDCHAR
STARTCHAR logicalnot
ENCODING 172
SWIDTH 500 0
DWIDTH 8 0
BBX 13 16 -1 -3
BITMAP
0000
0000
0000
0000
0000
0000
0000
0FC0
00C0
0000
0000
0000
0000
0000
0000
0000
ENDCHAR
STARTCHAR hyphen
ENCODING 173
SWIDTH 312 0
DWIDTH 5 0
BBX 10 16 -1 -3
BITMAP
0000
0000
0000
0000
0000
0000
0000
0000
1F00
0000
0000
0000
0000
0000
0000
0000
ENDCHAR
STARTCHAR registered
ENCODING 174
SWIDTH 562 0
DWIDTH 9 0
BBX 14 16 -1 -3
BITMAP
0000
0000
0000
01F0
0630
0BD8
0B78
17B0
16F0
0C60
0F80
0000
0000
0000
0000
0000
ENDCHAR
STARTCHAR macron
ENCODING 175
SWIDTH 500 0
DWIDTH 8 0
BBX 13 16 -1 -3
BITMAP
0000
07F8
0000
0000
0000
0000
0000
0000
0000
0000
0000
0000
0000
0000
0000
0000
ENDCHAR
STARTCHAR degree
ENCODING 156
SWIDTH 312 0
DWIDTH 5 0
BBX 10 16 -1 -3
BITMAP
0000
0000
0000
0180
0780
0300
0000
0000
0000
0000
0000
0000
0000
0000
0000
0000
ENDCHAR
STARTCHAR plusminus
ENCODING 177
SWIDTH 500 0
DWIDTH 8 0
BBX 13 16 -1 -3
BITMAP
0000
0000
0000
0000
0000
0000
0180
0300
0FC0
0300
0600
0000
1F80
0000
0000
0000
ENDCHAR
STARTCHAR twosuperior
ENCODING 157
SWIDTH 312 0
DWIDTH 5 0
BBX 10 16 -1 -3
BITMAP
0000
0000
0000
0380
0980
0300
0600
1F00
0000
0000
0000
0000
0000
0000
0000
0000
ENDCHAR
STARTCHAR threesuperior
ENCODING 179
SWIDTH 312 0
DWIDTH 5 0
BBX 10 16 -1 -3
BITMAP
0000
0000
0000
0380
0980
0300
0980
0E00
0000
0000
0000
0000
0000
0000
0000
0000
ENDCHAR
STARTCHAR acute
ENCODING 180
SWIDTH 312 0
DWIDTH 5 0
BBX 10 16 -1 -3
BITMAP
0000
0000
0000
0180
0600
0000
0000
0000
0000
0000
0000
0000
0000
0000
0000
0000
ENDCHAR
STARTCHAR mu
ENCODING 181
SWIDTH 500 0
DWIDTH 8 0
BBX 13 16 -1 -3
BITMAP
0000
0000
0000
0000
0000
0660
0660
0CC0
0CC0
0CC0
1980
1980
1FC0
3000
3000
3000
ENDCHAR
STARTCHAR paragraph
ENCODING 182
SWIDTH 500 0
DWIDTH 8 0
BBX 13 16 -1 -3
BITMAP
0000
0000
0000
01F0
07E0
07E0
07E0
0FC0
07C0
03C0
0780
0780
0780
0000
0000
0000
ENDCHAR
STARTCHAR periodcentered
ENCODING 183
SWIDTH 250 0
DWIDTH 4 0
BBX 9 16 -1 -3
BITMAP
0000
0000
0000
0000
0000
0000
0000
0C00
0000
0000
0000
0000
0000
0000
0000
0000
ENDCHAR
STARTCHAR cedilla
ENCODING 184
SWIDTH 312 0
DWIDTH 5 0
BBX 10 16 -1 -3
BITMAP
0000
0000
0000
0000
0000
0000
0000
0000
0000
0000
0000
0000
0000
1800
0C00
3800
ENDCHAR
STARTCHAR onesuperior
ENCODING 185
SWIDTH 312 0
DWIDTH 5 0
BBX 10 16 -1 -3
BITMAP
0000
0000
0000
0180
0700
0300
0300
0600
0000
0000
0000
0000
0000
0000
0000
0000
ENDCHAR
STARTCHAR ordmasculine
ENCODING 186
SWIDTH 375 0
DWIDTH 6 0
BBX 11 16 -1 -3
BITMAP
0000
0000
0000
0180
0780
0780
0780
0600
0000
0F00
0000
0000
0000
0000
0000
0000
ENDCHAR
STARTCHAR guillemotright
ENCODING 187
SWIDTH 500 0
DWIDTH 8 0
BBX 13 16 -1 -3
BITMAP
0000
0000
0000
0000
0000
0000
0000
0F00
0780
03C0
0F00
1E00
0000
0000
0000
0000
ENDCHAR
STARTCHAR onequarter
ENCODING 188
SWIDTH 625 0
DWIDTH 10 0
BBX 15 16 -1 -3
BITMAP
0000
0000
0000
0318
0E30
0660
0660
0D80
0198
0338
06F0
0DF0
0C30
0000
0000
0000
ENDCHAR
STARTCHAR onehalf
ENCODING 189
SWIDTH 625 0
DWIDTH 10 0
BBX 15 16 -1 -3
BITMAP
0000
0000
0000
0318
0E30
0660
0660
0D80
01F0
03D8
0660
0CC0
0DF0
0000
0000
0000
ENDCHAR
STARTCHAR threequarters
ENCODING 190
SWIDTH 625 0
DWIDTH 10 0
BBX 15 16 -1 -3
BITMAP
0000
0000
0000
0398
09B0
0360
09E0
0F80
0198
0338
06F0
0DF0
0C30
0000
0000
0000
ENDCHAR
STARTCHAR questiondown
ENCODING 169
SWIDTH 500 0
DWIDTH 8 0
BBX 13 16 -1 -3
BITMAP
0000
0000
0000
0000
0000
0000
0180
0000
0300
0300
0600
0C00
1800
3300
3300
1E00
ENDCHAR
STARTCHAR cyr-A
ENCODING 225
SWIDTH 625 0
DWIDTH 10 0
BBX 15 16 -1 -3
BITMAP
0000
0000
0000
0060
00C0
01E0
01E0
0660
0660
0FF0
1860
2030
2030
0000
0000
0000
ENDCHAR
STARTCHAR cyr-Be
ENCODING 226
SWIDTH 625 0
DWIDTH 10 0
BBX 15 16 -1 -3
BITMAP
0000
0000
0000
03F8
0600
0600
0600
0FE0
0C30
0C30
1860
1860
1FC0
0000
0000
0000
ENDCHAR
STARTCHAR cyr-Ve
ENCODING 247
SWIDTH 625 0
DWIDTH 10 0
BBX 15 16 -1 -3
BITMAP
0000
0000
0000
03F8
0618
0618
0618
0FE0
0C30
0C30
1860
1860
1FC0
0000
0000
0000
ENDCHAR
STARTCHAR cyr-Ghe
ENCODING 231
SWIDTH 562 0
DWIDTH 9 0
BBX 14 16 -1 -3
BITMAP
0000
0000
0000
03F8
0600
0600
0600
0C00
0C00
0C00
1800
1800
1800
0000
0000
0000
ENDCHAR
STARTCHAR cyr-De
ENCODING 228
SWIDTH 687 0
DWIDTH 11 0
BBX 16 16 -1 -3
BITMAP
0000
0000
0000
00FC
0198
0198
0198
0330
0330
0330
0660
0C60
1FF0
3060
3060
0000
ENDCHAR
STARTCHAR cyr-Ie
ENCODING 229
SWIDTH 625 0
DWIDTH 10 0
BBX 15 16 -1 -3
BITMAP
0000
0000
0000
03FC
0600
0600
0600
0FE0
0C00
0C00
1800
1800
1FE0
0000
0000
0000
ENDCHAR
STARTCHAR cyr-Zhe
ENCODING 246
SWIDTH 875 0
DWIDTH 14 0
BBX 19 16 -1 -3
BITMAP
000000
000000
000000
0318C0
033300
01B600
00FC00
00F000
01F800
036C00
0CCC00
18C600
20C300
000000
000000
000000
ENDCHAR
STARTCHAR cyr-Ze
ENCODING 250
SWIDTH 625 0
DWIDTH 10 0
BBX 15 16 -1 -3
BITMAP
0000
0000
0000
01F8
0618
0018
0018
01E0
0030
0030
0060
1860
0FC0
0000
0000
0000
ENDCHAR
STARTCHAR cyr-I
ENCODING 233
SWIDTH 687 0
DWIDTH 11 0
BBX 16 16 -1 -3
BITMAP
0000
0000
0000
0306
060C
060C
061C
0C78
0CD8
0D98
1E30
1C30
1830
0000
0000
0000
ENDCHAR
STARTCHAR cyr-I-short
ENCODING 234
SWIDTH 687 0
DWIDTH 11 0
BBX 16 16 -1 -3
BITMAP
0000
00D8
0070
0306
060C
060C
061C
0C78
0CD8
0D98
1E30
1C30
1830
0000
0000
0000
ENDCHAR
STARTCHAR cyr-Ka
ENCODING 235
SWIDTH 562 0
DWIDTH 9 0
BBX 14 16 -1 -3
BITMAP
0000
0000
0000
0318
0660
06C0
0780
0E00
0F00
0D80
1980
18C0
1860
0000
0000
0000
ENDCHAR
STARTCHAR cyr-El
ENCODING 236
SWIDTH 812 0
DWIDTH 13 0
BBX 18 16 -1 -3
BITMAP
000000
000000
000000
00FF80
018300
018300
018300
030600
030600
030600
060C00
060C00
1C0C00
000000
000000
000000
ENDCHAR
STARTCHAR cyr-Em
ENCODING 237
SWIDTH 750 0
DWIDTH 12 0
BBX 17 16 -1 -3
BITMAP
000000
000000
000000
030300
060600
070E00
070E00
0F3C00
0F3C00
0DEC00
1BD800
199800
199800
000000
000000
000000
ENDCHAR
STARTCHAR cyr-En
ENCODING 238
SWIDTH 687 0
DWIDTH 11 0
BBX 16 16 -1 -3
BITMAP
0000
0000
0000
0306
060C
060C
060C
0FF8
0C18
0C18
1830
1830
1830
0000
0000
0000
ENDCHAR
STARTCHAR cyr-O
ENCODING 239
SWIDTH 687 0
DWIDTH 11 0
BBX 16 16 -1 -3
BITMAP
0000
0000
0000
00F8
0318
060C
060C
0C18
0C18
0C18
1830
0C60
07C0
0000
0000
0000
ENDCHAR
STARTCHAR cyr-Pe
ENCODING 240
SWIDTH 687 0
DWIDTH 11 0
BBX 16 16 -1 -3
BITMAP
0000
0000
0000
03FE
060C
060C
060C
0C18
0C18
0C18
1830
1830
1830
0000
0000
0000
ENDCHAR
STARTCHAR cyr-Er
ENCODING 242
SWIDTH 625 0
DWIDTH 10 0
BBX 15 16 -1 -3
BITMAP
0000
0000
0000
03F8
0618
060C
060C
0C30
0FE0
0C00
1800
1800
1800
0000
0000
0000
ENDCHAR
STARTCHAR cyr-Es
ENCODING 243
SWIDTH 625 0
DWIDTH 10 0
BBX 15 16 -1 -3
BITMAP
0000
0000
0000
00F8
0318
060C
0600
0C00
0C00
0C00
1830
0C60
07C0
0000
0000
0000
ENDCHAR
STARTCHAR cyr-Te
ENCODING 244
SWIDTH 625 0
DWIDTH 10 0
BBX 15 16 -1 -3
BITMAP
0000
0000
0000
07FE
00C0
00C0
00C0
0180
0180
0180
0300
0300
0300
0000
0000
0000
ENDCHAR
STARTCHAR cyr-U
ENCODING 245
SWIDTH 625 0
DWIDTH 10 0
BBX 15 16 -1 -3
BITMAP
0000
0000
0000
0406
080C
0618
0330
03C0
0180
0180
0600
0C00
3800
0000
0000
0000
ENDCHAR
STARTCHAR cyr-Ef
ENCODING 230
SWIDTH 687 0
DWIDTH 11 0
BBX 16 16 -1 -3
BITMAP
0000
0000
0000
00FC
036C
0666
0666
0CCC
0CCC
0CCC
0DB0
07E0
0180
0000
0000
0000
ENDCHAR
STARTCHAR cyr-Kha
ENCODING 232
SWIDTH 562 0
DWIDTH 9 0
BBX 14 16 -1 -3
BITMAP
0000
0000
0000
040C
0818
0630
0360
0380
0380
06C0
18C0
2060
2060
0000
0000
0000
ENDCHAR
STARTCHAR cyr-Tse
ENCODING 227
SWIDTH 687 0
DWIDTH 11 0
BBX 16 16 -1 -3
BITMAP
0000
0000
0000
0306
060C
060C
060C
0C18
0C18
0C18
1830
1830
1FF8
0030
0030
0000
ENDCHAR
STARTCHAR cyr-Che
ENCODING 254
SWIDTH 687 0
DWIDTH 11 0
BBX 16 16 -1 -3
BITMAP
0000
0000
0000
0306
060C
060C
060C
07F8
0018
0018
0030
0030
0030
0000
0000
0000
ENDCHAR
STARTCHAR cyr-Sha
ENCODING 251
SWIDTH 875 0
DWIDTH 14 0
BBX 19 16 -1 -3
BITMAP
000000
000000
000000
0318C0
063180
063180
063180
0C6300
0C6300
0C6300
18C600
18C600
1FFE00
000000
000000
000000
ENDCHAR
STARTCHAR cyr-Shcha
ENCODING 253
SWIDTH 875 0
DWIDTH 14 0
BBX 19 16 -1 -3
BITMAP
000000
000000
000000
0318C0
063180
063180
063180
0C6300
0C6300
0C6300
18C600
18C600
1FFF00
000600
000600
000000
ENDCHAR
STARTCHAR cyr-Ier
ENCODING 255
SWIDTH 750 0
DWIDTH 12 0
BBX 17 16 -1 -3
BITMAP
000000
000000
000000
078000
030000
030000
030000
07F800
060C00
060C00
0C1800
0C1800
0FF000
000000
000000
000000
ENDCHAR
STARTCHAR cyr-Iery
ENCODING 249
SWIDTH 812 0
DWIDTH 13 0
BBX 18 16 -1 -3
BITMAP
000000
000000
000000
030180
060300
060300
060300
0FF600
0C1E00
0C1E00
183C00
183C00
1FEC00
000000
000000
000000
ENDCHAR
STARTCHAR cyr-Ierik
ENCODING 248
SWIDTH 687 0
DWIDTH 11 0
BBX 16 16 -1 -3
BITMAP
0000
0000
0000
0300
0600
0600
0600
0FF0
0C18
0C18
1830
1830
1FE0
0000
0000
0000
ENDCHAR
STARTCHAR cyr-E-rev
ENCODING 252
SWIDTH 687 0
DWIDTH 11 0
BBX 16 16 -1 -3
BITMAP
0000
0000
0000
00F8
0318
060C
000C
01F8
0018
0018
1830
0C60
07C0
0000
0000
0000
ENDCHAR
STARTCHAR cyr-Yu
ENCODING 224
SWIDTH 750 0
DWIDTH 12 0
BBX 17 16 -1 -3
BITMAP
000000
000000
000000
033C00
06CC00
078600
078600
0F0C00
0F0C00
0F0C00
1E1800
1B3000
19E000
000000
000000
000000
ENDCHAR
STARTCHAR cyr-Ya
ENCODING 241
SWIDTH 687 0
DWIDTH 11 0
BBX 16 16 -1 -3
BITMAP
0000
0000
0000
01FE
060C
060C
060C
0C18
07F8
0198
0630
0C30
1830
0000
0000
0000
ENDCHAR
STARTCHAR cyr-a
ENCODING 193
SWIDTH 562 0
DWIDTH 9 0
BBX 14 16 -1 -3
BITMAP
0000
0000
0000
0000
0000
0000
03E0
0C60
07E0
0C60
18C0
18C0
0FE0
0000
0000
0000
ENDCHAR
STARTCHAR cyr-be
ENCODING 194
SWIDTH 562 0
DWIDTH 9 0
BBX 14 16 -1 -3
BITMAP
0000
0000
0000
0018
03E0
0600
07E0
0C60
0C60
0C60
18C0
18C0
0F80
0000
0000
0000
ENDCHAR
STARTCHAR cyr-ve
ENCODING 215
SWIDTH 562 0
DWIDTH 9 0
BBX 14 16 -1 -3
BITMAP
0000
0000
0000
0000
0000
0000
07E0
0C60
0C60
0FE0
18C0
18C0
1F80
0000
0000
0000
ENDCHAR
STARTCHAR cyr-ghe
ENCODING 199
SWIDTH 500 0
DWIDTH 8 0
BBX 13 16 -1 -3
BITMAP
0000
0000
0000
0000
0000
0000
07E0
0C00
0C00
0C00
1800
1800
1800
0000
0000
0000
ENDCHAR
STARTCHAR cyr-de
ENCODING 196
SWIDTH 687 0
DWIDTH 11 0
BBX 16 16 -1 -3
BITMAP
0000
0000
0000
0000
0000
0000
01F8
0330
0330
0330
0660
0C60
1FF0
3060
3060
0000
ENDCHAR
STARTCHAR cyr-ie
ENCODING 197
SWIDTH 562 0
DWIDTH 9 0
BBX 14 16 -1 -3
BITMAP
0000
0000
0000
0000
0000
0000
03E0
0C60
0C60
0FE0
1800
18C0
0F80
0000
0000
0000
ENDCHAR
STARTCHAR cyr-zhe
ENCODING 214
SWIDTH 750 0
DWIDTH 12 0
BBX 17 16 -1 -3
BITMAP
000000
000000
000000
000000
000000
000000
066600
06D800
03F000
03F000
0DB000
199800
218C00
000000
000000
000000
ENDCHAR
STARTCHAR cyr-z
ENCODING 218
SWIDTH 562 0
DWIDTH 9 0
BBX 14 16 -1 -3
BITMAP
0000
0000
0000
0000
0000
0000
03E0
0C60
0060
03C0
00C0
18C0
0F80
0000
0000
0000
ENDCHAR
STARTCHAR cyr-i
ENCODING 201
SWIDTH 562 0
DWIDTH 9 0
BBX 14 16 -1 -3
BITMAP
0000
0000
0000
0000
0000
0000
0630
0C60
0CE0
0DE0
1EC0
1CC0
18C0
0000
0000
0000
ENDCHAR
STARTCHAR cyr-i-short
ENCODING 202
SWIDTH 562 0
DWIDTH 9 0
BBX 14 16 -1 -3
BITMAP
0000
0000
0000
0000
0360
01C0
0630
0C60
0CE0
0DE0
1EC0
1CC0
18C0
0000
0000
0000
ENDCHAR
STARTCHAR cyr-ka
ENCODING 203
SWIDTH 500 0
DWIDTH 8 0
BBX 13 16 -1 -3
BITMAP
0000
0000
0000
0000
0000
0000
0660
0D80
0F00
0F00
1B00
1980
18C0
0000
0000
0000
ENDCHAR
STARTCHAR cyr-el
ENCODING 204
SWIDTH 562 0
DWIDTH 9 0
BBX 14 16 -1 -3
BITMAP
0000
0000
0000
0000
0000
0000
03F0
0660
0660
0660
0CC0
0CC0
18C0
0000
0000
0000
ENDCHAR
STARTCHAR cyr-em
ENCODING 205
SWIDTH 625 0
DWIDTH 10 0
BBX 15 16 -1 -3
BITMAP
0000
0000
0000
0000
0000
0000
0618
0E70
0FF0
0DB0
1860
1860
1860
0000
0000
0000
ENDCHAR
STARTCHAR cyr-en
ENCODING 206
SWIDTH 500 0
DWIDTH 8 0
BBX 13 16 -1 -3
BITMAP
0000
0000
0000
0000
0000
0000
0660
0CC0
0CC0
0FC0
1980
1980
1980
0000
0000
0000
ENDCHAR
STARTCHAR cyr-o
ENCODING 207
SWIDTH 562 0
DWIDTH 9 0
BBX 14 16 -1 -3
BITMAP
0000
0000
0000
0000
0000
0000
03E0
0C60
0C60
0C60
18C0
18C0
0F80
0000
0000
0000
ENDCHAR
STARTCHAR cyr-pe
ENCODING 208
SWIDTH 500 0
DWIDTH 8 0
BBX 13 16 -1 -3
BITMAP
0000
0000
0000
0000
0000
0000
07E0
0CC0
0CC0
0CC0
1980
1980
1980
0000
0000
0000
ENDCHAR
STARTCHAR cyr-er
ENCODING 210
SWIDTH 562 0
DWIDTH 9 0
BBX 14 16 -1 -3
BITMAP
0000
0000
0000
0000
0000
0000
07E0
0E60
0C60
0C60
18C0
1CC0
1F80
3000
3000
3000
ENDCHAR
STARTCHAR cyr-es
ENCODING 211
SWIDTH 500 0
DWIDTH 8 0
BBX 13 16 -1 -3
BITMAP
0000
0000
0000
0000
0000
0000
03E0
0C60
0C00
0C00
1800
18C0
0F80
0000
0000
0000
ENDCHAR
STARTCHAR cyr-te
ENCODING 212
SWIDTH 625 0
DWIDTH 10 0
BBX 15 16 -1 -3
BITMAP
0000
0000
0000
0000
0000
0000
07F8
0180
0180
0180
0300
0300
0300
0000
0000
0000
ENDCHAR
STARTCHAR cyr-u
ENCODING 213
SWIDTH 500 0
DWIDTH 8 0
BBX 13 16 -1 -3
BITMAP
0000
0000
0000
0000
0000
0000
0830
1060
0CC0
0CC0
0F00
0F00
0600
0C00
1800
7000
ENDCHAR
STARTCHAR cyr-ef
ENCODING 198
SWIDTH 625 0
DWIDTH 10 0
BBX 15 16 -1 -3
BITMAP
0000
0000
0000
0000
0000
00C0
03F0
0DB0
0DB0
0DB0
1B60
1B60
0FC0
0600
0600
0600
ENDCHAR
STARTCHAR cyr-kha
ENCODING 200
SWIDTH 437 0
DWIDTH 7 0
BBX 12 16 -1 -3
BITMAP
0000
0000
0000
0000
0000
0000
0860
0D80
0700
0700
0E00
1B00
2180
0000
0000
0000
ENDCHAR
STARTCHAR cyr-tse
ENCODING 195
SWIDTH 500 0
DWIDTH 8 0
BBX 13 16 -1 -3
BITMAP
0000
0000
0000
0000
0000
0000
0660
0CC0
0CC0
0CC0
1980
1980
1FC0
0180
0180
0000
ENDCHAR
STARTCHAR cyr-che
ENCODING 222
SWIDTH 500 0
DWIDTH 8 0
BBX 13 16 -1 -3
BITMAP
0000
0000
0000
0000
0000
0000
0660
0CC0
0CC0
07C0
0180
0180
0180
0000
0000
0000
ENDCHAR
STARTCHAR cyr-sha
ENCODING 219
SWIDTH 750 0
DWIDTH 12 0
BBX 17 16 -1 -3
BITMAP
000000
000000
000000
000000
000000
000000
066600
0CCC00
0CCC00
0CCC00
199800
199800
1FF800
000000
000000
000000
ENDCHAR
STARTCHAR cyr-shcha
ENCODING 221
SWIDTH 750 0
DWIDTH 12 0
BBX 17 16 -1 -3
BITMAP
000000
000000
000000
000000
000000
000000
066600
0CCC00
0CCC00
0CCC00
199800
199800
1FFC00
001800
001800
000000
ENDCHAR
STARTCHAR cyr-ier
ENCODING 223
SWIDTH 625 0
DWIDTH 10 0
BBX 15 16 -1 -3
BITMAP
0000
0000
0000
0000
0000
0000
0F00
0600
07E0
0630
0C60
0C60
0FC0
0000
0000
0000
ENDCHAR
STARTCHAR cyr-iery
ENCODING 217
SWIDTH 687 0
DWIDTH 11 0
BBX 16 16 -1 -3
BITMAP
0000
0000
0000
0000
0000
0000
060C
0C18
0FD8
0C78
18F0
18F0
1FB0
0000
0000
0000
ENDCHAR
STARTCHAR cyr-ierik
ENCODING 216
SWIDTH 562 0
DWIDTH 9 0
BBX 14 16 -1 -3
BITMAP
0000
0000
0000
0000
0000
0000
0600
0C00
0FC0
0C60
18C0
18C0
1F80
0000
0000
0000
ENDCHAR
STARTCHAR cyr-e-rev
ENCODING 220
SWIDTH 562 0
DWIDTH 9 0
BBX 14 16 -1 -3
BITMAP
0000
0000
0000
0000
0000
0000
03E0
0C60
0060
03E0
00C0
18C0
0F80
0000
0000
0000
ENDCHAR
STARTCHAR cyr-yu
ENCODING 192
SWIDTH 625 0
DWIDTH 10 0
BBX 15 16 -1 -3
BITMAP
0000
0000
0000
0000
0000
0000
06F0
0F30
0F30
0F30
1E60
1E60
1BC0
0000
0000
0000
ENDCHAR
STARTCHAR cyr-ya
ENCODING 209
SWIDTH 562 0
DWIDTH 9 0
BBX 14 16 -1 -3
BITMAP
0000
0000
0000
0000
0000
0000
03F0
0C60
0C60
0C60
0FC0
0CC0
18C0
0000
0000
0000
ENDCHAR
ENDFONT
